<?xml version="1.0" encoding="UTF-8"?>
<svg id="Layer_2" data-name="Layer 2" xmlns="http://www.w3.org/2000/svg" viewBox="0 0 221 88.07">
  <defs>
    <style>
      .cls-1 {
        fill: #fff;
      }
    </style>
  </defs>
  <g id="Layer_1-2" data-name="Layer 1">
    <g>
      <path class="cls-1" d="M0,1.93h29.72c24.9,0,43.68,18.05,43.68,42.11s-18.77,42.11-43.68,42.11H0V1.93ZM28.64,62.82c11.79,0,19.25-7.35,19.25-18.78s-7.46-18.77-19.25-18.77h-3.61v37.55h3.61Z"/>
      <path class="cls-1" d="M127.1,72.2h-25.15l-3.85,13.95h-26.71L99.67,1.93h29.72l28.29,84.23h-26.72l-3.85-13.95ZM121.45,51.02l-6.86-25.27-6.98,25.27h13.84Z"/>
      <path class="cls-1" d="M160.72,79.9l3.14-22.5c9.98,6.73,18.77,9.38,25.63,9.38,5.65,0,7.22-2.52,7.22-4.68,0-2.53-1.33-4.58-8.54-6.98l-4.82-1.57c-14.43-4.69-20.81-14.56-20.81-26.47,0-15.4,11.9-27.08,30.44-27.08,7.7,0,15.76,1.81,25.02,5.66l-3.13,22.14c-9.02-4.33-16.72-6.74-22.5-6.74-4.57,0-6.25,2.17-6.25,4.57,0,2.53,1.8,4.57,7.94,6.5l4.82,1.57c16.48,5.41,22.13,16,22.13,26.6,0,13.47-8.9,27.79-31.04,27.79-11.32,0-21.05-3.61-29.25-8.17Z"/>
    </g>
  </g>
</svg>